<?xml version="1.0" encoding="utf-8"?>
<svg width="200px" height="200px" viewbox="0 0 200 200" version="1.1" xmlns:xlink="http://www.w3.org/1999/xlink" xmlns="http://www.w3.org/2000/svg">
  <g id="main_logo">
    <path d="M0 100C0 44.7715 44.7715 0 100 0C155.228 0 200 44.7715 200 100C200 155.228 155.228 200 100 200C44.7715 200 0 155.228 0 100L0 100Z" id="Ellipse" fill="#000000" fill-rule="evenodd" stroke="none" />
    <g id="New-group" transform="translate(15 15)">
      <path d="M0 85C0 38.0558 38.0558 0 85 0C131.944 0 170 38.0558 170 85C170 131.944 131.944 170 85 170C38.0558 170 0 131.944 0 85L0 85Z" id="Ellipse-2" fill="#FFFFFF" style="mix-blend-mode: difference;" fill-rule="evenodd" stroke="none" />
      <g id="Luca-Davanzo" transform="translate(31.696 63.444)">
        <g id="Luca-" transform="translate(21.779999 0)">
          <path d="M0.240005 12.192L0 14.112L11.424 14.112C12.48 14.112 13.224 14.084 13.656 14.028C14.088 13.972 14.304 13.912 14.304 13.848L13.344 11.808L3.408 11.808L3.408 0L0.240005 0L0.240005 12.192L0.240005 12.192ZM17.316 13.8C17.756 14.008 18.368 14.112 19.152 14.112L20.376 14.112C21.464 14.112 22.444 14.064 23.316 13.968C24.188 13.872 24.944 13.76 25.584 13.632L26.496 14.112L28.464 14.112L28.464 3.36L25.536 3.36L25.536 11.328C25.536 11.68 25.504 11.888 25.44 11.952C25.376 12.016 25.168 12.048 24.816 12.048L20.064 12.048C19.776 12.048 19.508 11.976 19.26 11.832C19.012 11.688 18.896 11.44 18.912 11.088L18.912 3.36L15.984 3.36L15.984 11.04C15.984 11.328 16.004 11.648 16.044 12C16.084 12.352 16.196 12.688 16.38 13.008C16.564 13.328 16.876 13.592 17.316 13.8L17.316 13.8ZM34.272 14.112C33.472 14.112 32.856 14.008 32.424 13.8C31.992 13.592 31.684 13.328 31.5 13.008C31.316 12.688 31.204 12.352 31.164 12C31.124 11.648 31.104 11.328 31.104 11.04L31.104 6.432C31.104 6.192 31.124 5.89999 31.164 5.556C31.204 5.21201 31.316 4.872 31.5 4.536C31.684 4.2 31.996 3.92 32.436 3.696C32.876 3.472 33.488 3.36 34.272 3.36L37.608 3.36C39.608 3.36 41.028 3.412 41.868 3.516C42.708 3.62 43.128 3.728 43.128 3.84L42.648 5.664C42.2 5.632 41.632 5.596 40.944 5.556C40.256 5.516 39.516 5.48399 38.724 5.46C37.932 5.436 37.16 5.424 36.408 5.424L35.184 5.424C34.416 5.424 34.032 5.744 34.032 6.384L34.032 11.088C34.0255 11.3455 34.0839 11.5513 34.207 11.7052C34.3899 11.9337 34.7155 12.048 35.184 12.048L36.408 12.048C37.272 12.048 38.116 12.036 38.94 12.012C39.764 11.988 40.52 11.956 41.208 11.916C41.896 11.876 42.448 11.84 42.864 11.808L43.824 13.368C43.824 13.864 42.248 14.112 39.096 14.112L34.272 14.112L34.272 14.112ZM45.96 13.26C46.504 13.828 47.384 14.112 48.6 14.112L49.8 14.112C51.016 14.112 52.096 14.06 53.04 13.956C53.984 13.852 54.792 13.744 55.464 13.632L56.4 14.112L58.368 14.112L58.368 6.432C58.368 6.192 58.348 5.89999 58.308 5.556C58.268 5.21201 58.156 4.872 57.972 4.536C57.788 4.2 57.48 3.92 57.048 3.696C56.616 3.472 56 3.36 55.2 3.36L54 3.36C51.152 3.36 49.12 3.384 47.904 3.432C46.688 3.48 46.08 3.616 46.08 3.84L46.344 5.664C46.76 5.616 47.552 5.564 48.72 5.508C49.888 5.452 51.344 5.424 53.088 5.424L54.288 5.424C54.672 5.424 54.944 5.472 55.104 5.568C55.264 5.664 55.36 5.78799 55.392 5.94C55.424 6.092 55.44 6.24 55.44 6.384L55.44 7.968C54.816 7.904 54.024 7.84 53.064 7.776C52.104 7.71201 51.024 7.68 49.824 7.68L48.6 7.68C47.432 7.68 46.564 7.96 45.996 8.52C45.428 9.08 45.144 9.88 45.144 10.92C45.144 11.912 45.416 12.692 45.96 13.26L45.96 13.26ZM54.72 12.048L49.224 12.048C48.84 12.048 48.552 11.952 48.36 11.76C48.168 11.568 48.072 11.248 48.072 10.8C48.072 10.352 48.156 10.024 48.324 9.81599C48.492 9.608 48.792 9.504 49.224 9.504L55.44 9.504L55.44 11.352C55.44 11.688 55.408 11.888 55.344 11.952C55.28 12.016 55.072 12.048 54.72 12.048L54.72 12.048Z" id="Shape" fill="#000000" fill-rule="evenodd" stroke="none" />
        </g>
        <g id="Davanzo" transform="translate(0 30.346298)">
          <path d="M0.240002 14.112L0.240002 1.92L0 0L11.136 0C12.432 0 13.428 0.160004 14.124 0.480003C14.82 0.800003 15.304 1.276 15.576 1.908C15.848 2.54 15.984 3.328 15.984 4.272L15.984 9.816C15.984 10.776 15.852 11.572 15.588 12.204C15.324 12.836 14.844 13.312 14.148 13.632C13.452 13.952 12.448 14.112 11.136 14.112L0.240002 14.112L0.240002 14.112ZM3.408 11.808L10.944 11.808C12.176 11.808 12.8 11.24 12.816 10.104L12.816 3.984C12.816 3.52 12.68 3.124 12.408 2.79601C12.136 2.468 11.648 2.304 10.944 2.304L3.408 2.304L3.408 11.808L3.408 11.808ZM21.96 14.112C20.744 14.112 19.864 13.828 19.32 13.26C18.776 12.692 18.504 11.912 18.504 10.92C18.504 9.88 18.788 9.08 19.356 8.52C19.924 7.96 20.792 7.68 21.96 7.68L23.184 7.68C24.384 7.68 25.464 7.712 26.424 7.776C27.384 7.84 28.176 7.904 28.8 7.968L28.8 6.384C28.8 6.24 28.784 6.092 28.752 5.94C28.72 5.788 28.624 5.664 28.464 5.568C28.304 5.472 28.032 5.424 27.648 5.424L26.448 5.424C24.704 5.424 23.248 5.452 22.08 5.508C20.912 5.564 20.12 5.616 19.704 5.664L19.44 3.84C19.44 3.616 20.048 3.48 21.264 3.432C22.48 3.384 24.512 3.36 27.36 3.36L28.56 3.36C29.36 3.36 29.976 3.472 30.408 3.696C30.84 3.92001 31.148 4.2 31.332 4.536C31.516 4.872 31.628 5.212 31.668 5.556C31.708 5.9 31.728 6.192 31.728 6.432L31.728 14.112L29.76 14.112L28.824 13.632C28.152 13.744 27.344 13.852 26.4 13.956C25.456 14.06 24.376 14.112 23.16 14.112L21.96 14.112L21.96 14.112ZM33.288 3.36L38.232 14.112L42.072 14.112L46.584 4.82401L46.968 3.36L43.704 3.36L40.896 9.984L40.272 11.712L40.032 11.712L39.408 9.984L36.648 3.36L33.288 3.36L33.288 3.36ZM51.744 14.112C50.528 14.112 49.648 13.828 49.104 13.26C48.56 12.692 48.288 11.912 48.288 10.92C48.288 9.88 48.572 9.08 49.14 8.52C49.708 7.96 50.576 7.68 51.744 7.68L52.968 7.68C54.168 7.68 55.248 7.712 56.208 7.776C57.168 7.84 57.96 7.904 58.584 7.968L58.584 6.384C58.584 6.24 58.568 6.092 58.536 5.94C58.504 5.788 58.408 5.664 58.248 5.568C58.088 5.472 57.816 5.424 57.432 5.424L56.232 5.424C54.488 5.424 53.032 5.452 51.864 5.508C50.696 5.564 49.904 5.616 49.488 5.664L49.224 3.84C49.224 3.616 49.832 3.48 51.048 3.432C52.264 3.384 54.296 3.36 57.144 3.36L58.344 3.36C59.144 3.36 59.76 3.472 60.192 3.696C60.624 3.92001 60.932 4.2 61.116 4.536C61.3 4.872 61.412 5.212 61.452 5.556C61.492 5.9 61.512 6.192 61.512 6.432L61.512 14.112L59.544 14.112L58.608 13.632C57.936 13.744 57.128 13.852 56.184 13.956C55.24 14.06 54.16 14.112 52.944 14.112L51.744 14.112L51.744 14.112ZM64.272 3.36L64.272 14.112L67.2 14.112L67.2 5.952C67.2 5.71201 67.244 5.564 67.332 5.508C67.42 5.452 67.616 5.424 67.92 5.424L73.152 5.424C73.92 5.424 74.304 5.744 74.304 6.384L74.304 14.112L77.232 14.112L77.232 6.432C77.232 6.192 77.212 5.9 77.172 5.556C77.132 5.212 77.02 4.872 76.836 4.536C76.652 4.2 76.344 3.92001 75.912 3.696C75.48 3.472 74.864 3.36 74.064 3.36L72.864 3.36C71.648 3.36 70.568 3.408 69.624 3.504C68.68 3.6 67.872 3.71201 67.2 3.84L66.24 3.36L64.272 3.36L64.272 3.36ZM79.512 14.112L79.512 12.672L87.264 5.448L79.992 5.448L79.992 3.36L91.752 3.36L91.752 4.8L83.784 12.048L91.968 12.048L92.688 13.848C92.688 13.912 92.448 13.972 91.968 14.028C91.488 14.084 90.68 14.112 89.544 14.112L79.512 14.112L79.512 14.112ZM95.148 13.464C95.668 13.896 96.464 14.112 97.536 14.112L104.16 14.112C104.944 14.112 105.552 14.008 105.984 13.8C106.416 13.592 106.728 13.328 106.92 13.008C107.112 12.688 107.228 12.352 107.268 12C107.308 11.648 107.328 11.328 107.328 11.04L107.328 6.432C107.328 6.192 107.308 5.9 107.268 5.556C107.228 5.212 107.116 4.872 106.932 4.536C106.748 4.2 106.44 3.92001 106.008 3.696C105.576 3.472 104.96 3.36 104.16 3.36L97.536 3.36C96.752 3.36 96.14 3.472 95.7 3.696C95.26 3.92001 94.948 4.2 94.764 4.536C94.58 4.872 94.468 5.212 94.428 5.556C94.388 5.9 94.368 6.192 94.368 6.432L94.368 11.352C94.368 12.328 94.628 13.032 95.148 13.464L95.148 13.464ZM103.248 12.048L98.448 12.048C97.68 12.048 97.296 11.728 97.296 11.088L97.296 6.384C97.296 5.744 97.68 5.424 98.448 5.424L103.248 5.424C104.032 5.424 104.424 5.744 104.424 6.384L104.424 11.088C104.424 11.728 104.032 12.048 103.248 12.048L103.248 12.048ZM22.584 12.048L28.08 12.048C28.432 12.048 28.64 12.016 28.704 11.952C28.768 11.888 28.8 11.688 28.8 11.352L28.8 9.504L22.584 9.504C22.152 9.504 21.852 9.608 21.684 9.816C21.516 10.024 21.432 10.352 21.432 10.8C21.432 11.248 21.528 11.568 21.72 11.76C21.912 11.952 22.2 12.048 22.584 12.048L22.584 12.048ZM52.368 12.048L57.864 12.048C58.216 12.048 58.424 12.016 58.488 11.952C58.552 11.888 58.584 11.688 58.584 11.352L58.584 9.504L52.368 9.504C51.936 9.504 51.636 9.608 51.468 9.816C51.3 10.024 51.216 10.352 51.216 10.8C51.216 11.248 51.312 11.568 51.504 11.76C51.696 11.952 51.984 12.048 52.368 12.048L52.368 12.048Z" id="Shape" fill="#000000" fill-rule="evenodd" stroke="none" />
        </g>
      </g>
    </g>
  </g>
</svg>