<?xml version="1.0" encoding="utf-8"?>
<svg width="200px" height="200px" viewbox="0 0 200 200" version="1.1" xmlns:xlink="http://www.w3.org/1999/xlink" xmlns="http://www.w3.org/2000/svg">
  <path d="M0 100C0 44.7715 44.7715 0 100 0C155.228 0 200 44.7715 200 100C200 155.228 155.228 200 100 200C44.7715 200 0 155.228 0 100Z" id="Ellipse" fill="#000000" fill-rule="evenodd" stroke="none" />
  <g id="New-group" transform="translate(15 15)">
    <path d="M0 85C0 38.0558 38.0558 0 85 0C131.944 0 170 38.0558 170 85C170 131.944 131.944 170 85 170C38.0558 170 0 131.944 0 85Z" id="Ellipse-2" fill="#E1DEDE" fill-rule="evenodd" stroke="none" />
    <g id="Luca-Davanzo" transform="translate(21 21)">
      <g id="Luca-">
        <path d="M32.716 54.636L32.476 56.556L43.9 56.556Q45.484 56.556 46.132 56.472Q46.78 56.388 46.78 56.292L45.82 54.252L35.884 54.252L35.884 42.444L32.716 42.444L32.716 54.636ZM49.792 56.244Q50.452 56.556 51.628 56.556L52.852 56.556Q54.484 56.556 55.792 56.412Q57.1 56.268 58.06 56.076L58.972 56.556L60.94 56.556L60.94 45.804L58.012 45.804L58.012 53.772Q58.012 54.3 57.916 54.396Q57.82 54.492 57.292 54.492L52.54 54.492Q52.108 54.492 51.736 54.276Q51.364 54.06 51.388 53.532L51.388 45.804L48.46 45.804L48.46 53.484Q48.46 53.916 48.52 54.444Q48.58 54.972 48.856 55.452Q49.132 55.932 49.792 56.244ZM66.748 56.556C65.948 56.556 65.332 56.452 64.9 56.244Q64.252 55.932 63.976 55.452Q63.7 54.972 63.64 54.444Q63.58 53.916 63.58 53.484L63.58 48.876Q63.58 48.516 63.64 48Q63.7 47.484 63.976 46.98Q64.252 46.476 64.912 46.14Q65.572 45.804 66.748 45.804L70.084 45.804Q73.084 45.804 74.344 45.96Q75.604 46.116 75.604 46.284L75.124 48.108Q74.452 48.06 73.42 48Q72.388 47.94 71.2 47.904Q70.012 47.868 68.884 47.868L67.66 47.868Q66.508 47.868 66.508 48.828L66.508 53.532Q66.4983 53.9183 66.683 54.1492Q66.9573 54.492 67.66 54.492L68.884 54.492Q70.18 54.492 71.416 54.456Q72.652 54.42 73.684 54.36Q74.716 54.3 75.34 54.252L76.3 55.812C76.3 56.308 74.724 56.556 71.572 56.556L66.748 56.556ZM78.436 55.704Q79.252 56.556 81.076 56.556L82.276 56.556C83.492 56.556 84.572 56.504 85.516 56.4Q86.932 56.244 87.94 56.076L88.876 56.556L90.844 56.556L90.844 48.876Q90.844 48.516 90.784 48Q90.724 47.484 90.448 46.98Q90.172 46.476 89.524 46.14Q88.876 45.804 87.676 45.804L86.476 45.804Q82.204 45.804 80.38 45.876Q78.556 45.948 78.556 46.284L78.82 48.108Q79.444 48.036 81.196 47.952Q82.948 47.868 85.564 47.868L86.764 47.868Q87.34 47.868 87.58 48.012Q87.82 48.156 87.868 48.384Q87.916 48.612 87.916 48.828L87.916 50.412Q86.98 50.316 85.54 50.22Q84.1 50.124 82.3 50.124L81.076 50.124Q79.324 50.124 78.472 50.964Q77.62 51.804 77.62 53.364Q77.62 54.852 78.436 55.704ZM87.196 54.492L81.7 54.492Q81.124 54.492 80.836 54.204Q80.548 53.916 80.548 53.244Q80.548 52.572 80.8 52.26Q81.052 51.948 81.7 51.948L87.916 51.948L87.916 53.796Q87.916 54.3 87.82 54.396Q87.724 54.492 87.196 54.492Z" />
      </g>
      <g id="Davanzo">
        <path d="M10.936 86.9023L10.936 74.7103L10.696 72.7903L21.832 72.7903Q23.776 72.7903 24.82 73.2703Q25.864 73.7503 26.272 74.6983Q26.68 75.6463 26.68 77.0623L26.68 82.6063Q26.68 84.0463 26.284 84.9943Q25.888 85.9423 24.844 86.4223C24.148 86.7423 23.144 86.9023 21.832 86.9023L10.936 86.9023ZM14.104 84.5983L21.64 84.5983Q23.488 84.5983 23.512 82.8943L23.512 76.7743Q23.512 76.0783 23.104 75.5863Q22.696 75.0943 21.64 75.0943L14.104 75.0943L14.104 84.5983ZM32.656 86.9023Q30.832 86.9023 30.016 86.0503Q29.2 85.1983 29.2 83.7103Q29.2 82.1503 30.052 81.3103Q30.904 80.4703 32.656 80.4703L33.88 80.4703Q35.68 80.4703 37.12 80.5663Q38.56 80.6623 39.496 80.7583L39.496 79.1743Q39.496 78.9583 39.448 78.7303Q39.4 78.5023 39.16 78.3583Q38.92 78.2143 38.344 78.2143L37.144 78.2143Q34.528 78.2143 32.776 78.2983Q31.024 78.3823 30.4 78.4543L30.136 76.6303Q30.136 76.2943 31.96 76.2223Q33.784 76.1503 38.056 76.1503L39.256 76.1503Q40.456 76.1503 41.104 76.4863Q41.752 76.8223 42.028 77.3263Q42.304 77.8303 42.364 78.3463Q42.424 78.8623 42.424 79.2223L42.424 86.9023L40.456 86.9023L39.52 86.4223Q38.512 86.5903 37.096 86.7463C36.152 86.8503 35.072 86.9023 33.856 86.9023L32.656 86.9023ZM43.984 76.1503L48.928 86.9023L52.768 86.9023L57.28 77.6143L57.664 76.1503L54.4 76.1503L51.592 82.7743L50.968 84.5023L50.728 84.5023L50.104 82.7743L47.344 76.1503L43.984 76.1503ZM62.44 86.9023Q60.616 86.9023 59.8 86.0503Q58.984 85.1983 58.984 83.7103Q58.984 82.1503 59.836 81.3103Q60.688 80.4703 62.44 80.4703L63.664 80.4703Q65.464 80.4703 66.904 80.5663Q68.344 80.6623 69.28 80.7583L69.28 79.1743Q69.28 78.9583 69.232 78.7303Q69.184 78.5023 68.944 78.3583Q68.704 78.2143 68.128 78.2143L66.928 78.2143Q64.312 78.2143 62.56 78.2983Q60.808 78.3823 60.184 78.4543L59.92 76.6303Q59.92 76.2943 61.744 76.2223Q63.568 76.1503 67.84 76.1503L69.04 76.1503Q70.24 76.1503 70.888 76.4863Q71.536 76.8223 71.812 77.3263Q72.088 77.8303 72.148 78.3463Q72.208 78.8623 72.208 79.2223L72.208 86.9023L70.24 86.9023L69.304 86.4223Q68.296 86.5903 66.88 86.7463C65.936 86.8503 64.856 86.9023 63.64 86.9023L62.44 86.9023ZM74.968 76.1503L74.968 86.9023L77.896 86.9023L77.896 78.7423Q77.896 78.3823 78.028 78.2983Q78.16 78.2143 78.616 78.2143L83.848 78.2143Q85 78.2143 85 79.1743L85 86.9023L87.928 86.9023L87.928 79.2223Q87.928 78.8623 87.868 78.3463Q87.808 77.8303 87.532 77.3263Q87.256 76.8223 86.608 76.4863Q85.96 76.1503 84.76 76.1503L83.56 76.1503Q81.736 76.1503 80.32 76.2943Q78.904 76.4383 77.896 76.6303L76.936 76.1503L74.968 76.1503ZM90.208 86.9023L90.208 85.4623L97.96 78.2383L90.688 78.2383L90.688 76.1503L102.448 76.1503L102.448 77.5903L94.48 84.8383L102.664 84.8383L103.384 86.6383Q103.384 86.7343 102.664 86.8183C102.184 86.8743 101.376 86.9023 100.24 86.9023L90.208 86.9023ZM105.844 86.2543C106.364 86.6863 107.16 86.9023 108.232 86.9023L114.856 86.9023C115.64 86.9023 116.248 86.7983 116.68 86.5903Q117.328 86.2783 117.616 85.7983Q117.904 85.3183 117.964 84.7903Q118.024 84.2623 118.024 83.8303L118.024 79.2223Q118.024 78.8623 117.964 78.3463Q117.904 77.8303 117.628 77.3263Q117.352 76.8223 116.704 76.4863Q116.056 76.1503 114.856 76.1503L108.232 76.1503Q107.056 76.1503 106.396 76.4863Q105.736 76.8223 105.46 77.3263Q105.184 77.8303 105.124 78.3463Q105.064 78.8623 105.064 79.2223L105.064 84.1423Q105.064 85.6063 105.844 86.2543ZM113.944 84.8383L109.144 84.8383Q107.992 84.8383 107.992 83.8783L107.992 79.1743Q107.992 78.2143 109.144 78.2143L113.944 78.2143Q115.12 78.2143 115.12 79.1743L115.12 83.8783Q115.12 84.8383 113.944 84.8383ZM33.28 84.8383L38.776 84.8383Q39.304 84.8383 39.4 84.7423Q39.496 84.6463 39.496 84.1423L39.496 82.2943L33.28 82.2943Q32.632 82.2943 32.38 82.6063Q32.128 82.9183 32.128 83.5903Q32.128 84.2623 32.416 84.5503Q32.704 84.8383 33.28 84.8383ZM63.064 84.8383L68.56 84.8383Q69.088 84.8383 69.184 84.7423Q69.28 84.6463 69.28 84.1423L69.28 82.2943L63.064 82.2943Q62.416 82.2943 62.164 82.6063Q61.912 82.9183 61.912 83.5903Q61.912 84.2623 62.2 84.5503Q62.488 84.8383 63.064 84.8383Z" />
      </g>
    </g>
  </g>
</svg>