<?xml version="1.0" encoding="utf-8"?>
<svg width="200px" height="200px" viewbox="0 0 200 200" version="1.1" xmlns:xlink="http://www.w3.org/1999/xlink" xmlns="http://www.w3.org/2000/svg">
  <defs>
    <filter id="filter_1">
      <feColorMatrix in="SourceGraphic" type="matrix" values="0 0 0 0 1 0 0 0 0 1 0 0 0 0 1 0 0 0 1 0" />
    </filter>
    <filter id="filter_2">
      <feColorMatrix in="SourceGraphic" type="matrix" values="0 0 0 0 1 0 0 0 0 0.78039217 0 0 0 0 0.011764706 0 0 0 1 0" />
    </filter>
    <path d="M0 0L200 0L200 200L0 200L0 0Z" id="path_1" />
    <clipPath id="mask_1">
      <use xlink:href="#path_1" />
    </clipPath>
  </defs>
  <g id="Round-icon" filter="url(#filter_1)">
    <path d="M0 0L200 0L200 200L0 200L0 0Z" id="Background" fill="none" fill-rule="evenodd" stroke="none" />
    <g clip-path="url(#mask_1)">
      <path d="M92 0C41.2846 0 0 41.2846 0 92C0 142.715 41.2846 184 92 184C142.715 184 184 142.715 184 92C184 41.2846 142.715 0 92 0L92 0ZM92 16C134.068 16 168 49.9316 168 92C168 134.068 134.068 168 92 168C49.9316 168 16 134.068 16 92C16 49.9316 49.9316 16 92 16L92 16Z" transform="translate(8 8)" id="Shape" fill="#FFFFFF" fill-rule="evenodd" stroke="none" />
    </g>
  </g>
  <g id="L--D" fill="#FFFFFF" transform="translate(63 82)">
    <path d="M3.24 29.204L2.88 32.084L20.016 32.084Q22.392 32.084 23.364 31.958Q24.336 31.832 24.336 31.688L22.896 28.628L7.992 28.628L7.992 10.916L3.24 10.916L3.24 29.204ZM43.776 13.796L43.776 32.084L60.12 32.084C62.088 32.084 63.594 31.844 64.638 31.364Q66.204 30.644 66.798 29.222Q67.392 27.8 67.392 25.64L67.392 17.324Q67.392 15.2 66.78 13.778Q66.168 12.356 64.602 11.636Q63.036 10.916 60.12 10.916L43.416 10.916L43.776 13.796ZM59.832 28.628L48.528 28.628L48.528 14.372L59.832 14.372Q61.416 14.372 62.028 15.11Q62.64 15.848 62.64 16.892L62.64 26.072Q62.604 28.628 59.832 28.628Z" />
  </g>
  <g id="Round-icon-2" filter="url(#filter_2)">
    <path d="M0 0L200 0L200 200L0 200L0 0Z" id="Background" fill="none" fill-rule="evenodd" stroke="none" />
    <g clip-path="url(#mask_1)">
      <path d="M72 0C32.2592 0 0 32.2592 0 72C0 111.741 32.2592 144 72 144C111.741 144 144 111.741 144 72C144 32.2592 111.741 0 72 0L72 0ZM72.0001 4.00009C109.579 4.00009 140 34.421 140 72.0001C140 109.579 109.579 140 72.0001 140C34.421 140 4.00009 109.579 4.00009 72.0001C4.00009 34.421 34.421 4.00009 72.0001 4.00009L72.0001 4.00009ZM71.9999 13.9999C45.2667 13.9999 22.7416 32.0969 16.035 56.7187C15.8899 57.2514 16.2038 57.8009 16.7364 57.9465C17.269 58.092 17.8188 57.7785 17.9647 57.246C24.4382 33.4798 46.1691 15.9999 71.9999 15.9999C87.1198 15.9999 100.827 21.9854 110.902 31.7187C111.158 31.9721 111.53 32.0684 111.877 31.9708C112.224 31.8732 112.491 31.5968 112.577 31.2471C112.663 30.8974 112.555 30.5285 112.293 30.2812C101.86 20.2025 87.648 13.9999 71.9999 13.9999L71.9999 13.9999ZM115.328 33.9882C114.939 33.9962 114.59 34.2291 114.433 34.5853C114.277 34.9414 114.341 35.3561 114.598 35.6483C115.146 36.2914 115.682 36.9452 116.203 37.6132C116.417 37.9109 116.776 38.0679 117.14 38.0225C117.503 37.9771 117.813 37.7364 117.947 37.3952C118.08 37.0541 118.017 36.6671 117.781 36.3866C117.242 35.6946 116.688 35.0163 116.121 34.3514C115.926 34.1154 115.634 33.9815 115.328 33.9882L115.328 33.9882ZM119.84 39.9883C119.468 39.9844 119.125 40.1869 118.949 40.5139C118.773 40.8409 118.792 41.2387 119 41.5468C119.829 42.8214 120.606 44.1319 121.332 45.4765C121.595 45.963 122.203 46.144 122.689 45.8808C123.176 45.6176 123.357 45.0099 123.094 44.5234C122.343 43.132 121.539 41.7745 120.68 40.4531C120.497 40.1651 120.181 39.9899 119.84 39.9883L119.84 39.9883ZM124.133 47.9884C123.798 47.9989 123.491 48.1759 123.315 48.4601C123.138 48.7443 123.115 49.0979 123.254 49.4025C126.305 56.3122 128 63.9566 128 72.0001C128 102.94 102.939 128 71.9999 128C41.0604 128 15.9999 102.94 15.9999 72.0001C15.9999 69.6712 16.1427 67.3757 16.4179 65.1212C16.4741 64.7603 16.3292 64.3975 16.0398 64.1747C15.7504 63.9519 15.3626 63.9046 15.0281 64.0513C14.6937 64.1979 14.4657 64.5152 14.4335 64.879C14.1487 67.2126 13.9999 69.589 13.9999 72.0001C13.9999 104.021 39.9795 130 71.9999 130C104.02 130 130 104.021 130 72.0001C130 63.6757 128.247 55.756 125.086 48.5978C124.925 48.2172 124.546 47.9751 124.133 47.9884L124.133 47.9884Z" transform="translate(27.999878 27.999878)" id="Shape" fill="#FFFFFF" fill-rule="evenodd" stroke="none" />
    </g>
  </g>
</svg>