<?xml version="1.0" encoding="utf-8"?>
<svg width="200px" height="200px" viewbox="0 0 200 200" version="1.1" xmlns:xlink="http://www.w3.org/1999/xlink" xmlns="http://www.w3.org/2000/svg">
  <path d="M0 100C0 44.7715 44.7715 0 100 0C155.228 0 200 44.7715 200 100C200 155.228 155.228 200 100 200C44.7715 200 0 155.228 0 100Z" id="Ellipse" fill="#000000" fill-rule="evenodd" stroke="none" />
  <path d="M0 85C0 38.0558 38.0558 0 85 0C131.944 0 170 38.0558 170 85C170 131.944 131.944 170 85 170C38.0558 170 0 131.944 0 85Z" transform="translate(15 15)" id="Ellipse-2" fill="#FFFFFF" fill-rule="evenodd" stroke="none" />
  <g id="--LUCA-DAVANZO-" transform="translate(15 90)">
    <path d="M36.612 16.9418Q37.332 17.3018 38.61 17.3018L43.614 17.3018Q45.108 17.3018 45.9 17.1578Q46.692 17.0138 46.989 16.8338Q47.286 16.6538 47.286 16.5638L46.548 15.3758Q46.152 15.4478 44.505 15.5108Q42.858 15.5738 39.87 15.5738L39.132 15.5738Q38.322 15.5738 38.007 15.2408Q37.692 14.9078 37.692 14.2958L37.692 9.70576Q37.692 8.42776 39.132 8.42776L40.05 8.42776Q42.912 8.42776 44.415 8.49076Q45.918 8.55376 46.224 8.60776L46.584 7.11376Q46.584 6.96976 45.927 6.83476Q45.27 6.69976 44.028 6.69976L38.61 6.69976Q36.864 6.69976 36.09 7.51876Q35.316 8.33776 35.316 10.0658L35.316 14.0798Q35.316 15.1418 35.604 15.8618Q35.892 16.5818 36.612 16.9418ZM9.36 17.3018L9.54 15.8618L9.54 6.71776L11.916 6.71776L11.916 15.5738L19.368 15.5738L20.088 17.1038Q20.088 17.1758 19.602 17.2388C19.278 17.2808 18.72 17.3018 17.928 17.3018L9.36 17.3018ZM24.372 17.4818Q22.734 17.4818 22.086 16.5998Q21.438 15.7178 21.438 14.2598L21.438 6.71776L23.814 6.71776L23.814 14.3318Q23.814 15.1778 24.228 15.4658Q24.642 15.7538 25.254 15.7538L29.07 15.7538Q29.646 15.7538 30.078 15.4568Q30.51 15.1598 30.51 14.3318L30.51 6.71776L32.886 6.71776L32.886 14.2598Q32.886 15.2318 32.616 15.9518Q32.346 16.6718 31.716 17.0768Q31.086 17.4818 29.97 17.4818L24.372 17.4818ZM47.646 17.3018L52.92 6.71776L56.466 6.71776L61.722 17.3018L58.95 17.3018L57.888 15.0158L51.444 15.0158L50.274 17.3018L47.646 17.3018ZM67.302 8.15776L67.302 17.3018L75.474 17.3018C76.458 17.3018 77.211 17.1818 77.733 16.9418Q78.516 16.5818 78.813 15.8708Q79.11 15.1598 79.11 14.0798L79.11 9.92176Q79.11 8.85976 78.804 8.14876Q78.498 7.43776 77.715 7.07776Q76.932 6.71776 75.474 6.71776L67.122 6.71776L67.302 8.15776ZM80.19 17.3018L85.464 6.71776L89.01 6.71776L94.266 17.3018L91.494 17.3018L90.432 15.0158L83.988 15.0158L82.818 17.3018L80.19 17.3018ZM107.514 17.3018L112.788 6.71776L116.334 6.71776L121.59 17.3018L118.818 17.3018L117.756 15.0158L111.312 15.0158L110.142 17.3018L107.514 17.3018ZM123.21 8.15776L123.21 17.3018L125.586 17.3018L125.586 9.93976L125.766 9.93976L126.468 10.7858L132.732 17.3018L135.018 17.3018L135.018 6.71776L132.642 6.71776L132.642 14.0978L132.444 14.0978L131.742 13.1258L125.622 6.71776L123.03 6.71776L123.21 8.15776ZM137.358 17.3018L137.358 15.5558L145.35 8.44576L137.358 8.44576L137.358 6.71776L148.536 6.71776L148.536 8.44576L140.382 15.5738L148.446 15.5738L149.166 17.1038Q149.166 17.1758 148.68 17.2388Q148.194 17.3018 147.006 17.3018L137.358 17.3018ZM152.208 16.9418C152.688 17.1818 153.348 17.3018 154.188 17.3018L159.444 17.3018Q161.316 17.3018 162.018 16.4828Q162.72 15.6638 162.72 14.0798L162.72 9.92176Q162.72 8.87776 162.423 8.16676Q162.126 7.45576 161.415 7.08676Q160.704 6.71776 159.444 6.71776L154.188 6.71776Q152.91 6.71776 152.19 7.08676Q151.47 7.45576 151.182 8.16676Q150.894 8.87776 150.894 9.92176L150.894 14.0798Q150.894 15.1418 151.191 15.8618Q151.488 16.5818 152.208 16.9418ZM94.446 6.73576L99.468 17.3018L102.348 17.3018L107.046 7.81576L107.334 6.73576L104.886 6.73576L101.466 14.0258L100.998 15.3218L100.836 15.3218L100.35 14.0258L96.966 6.73576L94.446 6.73576ZM52.092 13.2518L57.222 13.2518L54.756 8.33776L54.576 8.33776L52.092 13.2518ZM84.636 13.2518L89.766 13.2518L87.3 8.33776L87.12 8.33776L84.636 13.2518ZM111.96 13.2518L117.09 13.2518L114.624 8.33776L114.444 8.33776L111.96 13.2518ZM75.33 15.5738L69.678 15.5738L69.678 8.44576L75.33 8.44576Q76.122 8.44576 76.428 8.81476Q76.734 9.18376 76.734 9.70576L76.734 14.2958Q76.716 15.5738 75.33 15.5738ZM158.94 15.5738L154.71 15.5738Q154.044 15.5738 153.657 15.2408Q153.27 14.9078 153.27 14.2958L153.27 9.70576Q153.27 9.12976 153.666 8.78776Q154.062 8.44576 154.71 8.44576L158.94 8.44576Q159.588 8.44576 159.966 8.81476Q160.344 9.18376 160.344 9.70576L160.344 14.2958Q160.344 14.8898 159.975 15.2318Q159.606 15.5738 158.94 15.5738Z" />
  </g>
</svg>